<svg id="Layer_1" data-name="Layer 1" xmlns="http://www.w3.org/2000/svg" viewBox="0 0 400 300"><title>#140_user group_twocolour</title><rect x="27.59" y="92.89" width="68.92" height="108.91" fill="#e6e6e6"/><rect x="311.66" y="85.14" width="54.5" height="59.74" fill="#e6e6e6"/><ellipse cx="202.31" cy="250.82" rx="132.42" ry="15.63" fill="#e6e6e6" opacity="0.45"/><rect x="256.82" y="231.86" width="66.34" height="17.46" fill="#e6e6e6"/><rect x="242.32" y="214.78" width="66.34" height="17.46" fill="#e6e6e6" opacity="0.43"/><path d="M99.49,237s-9.8-2.68-11.93-11.8c0,0,15.18-3.06,15.61,12.61Z" fill="#2e6dfd" opacity="0.58"/><path d="M100.69,236.05s-6.85-10.82-.82-20.94c0,0,11.54,7.33,6.41,21Z" fill="#2e6dfd" opacity="0.73"/><path d="M102.45,236.06s3.62-11.43,14.56-13.6c0,0,2,7.42-7.08,13.63Z" fill="#2e6dfd"/><polygon points="95.35 235.8 97.33 249.39 109.84 249.44 111.69 235.87 95.35 235.8" fill="#24285b"/><rect x="137.77" y="36.29" width="118.85" height="213.16" fill="#c9c9c9"/><rect x="147.6" y="60.58" width="98.38" height="150.01" fill="#fff"/><circle cx="197.55" cy="229.81" r="11.63" fill="#fff" opacity="0.56"/><rect x="187.14" y="44.62" width="33.32" height="4.86" opacity="0.12"/><circle cx="175.07" cy="47.58" r="5.43" fill="#fff"/><circle cx="172.67" cy="100.28" r="14.73" fill="#24285b"/><path d="M174.63,93.51a12.94,12.94,0,0,1,.24,3.49,1,1,0,0,1-1.19.9,2.34,2.34,0,0,1-2-1.52l-.84-1.75a1.92,1.92,0,0,1,.59-2.11A2,2,0,0,1,174.63,93.51Z" fill="#f4a28c"/><polygon points="170.98 94.94 170.7 101.83 174.51 101.71 173.18 96.75 170.98 94.94" fill="#f4a28c"/><path d="M174.13,93.66a8.59,8.59,0,0,1-1.95.08,1.76,1.76,0,0,1,.23,1.91,1.43,1.43,0,0,1-1.65.77l-.28-2.69a2.14,2.14,0,0,1,.85-2,7.29,7.29,0,0,1,.85-.55c.73-.4,1.92,0,2.56-.62a.5.5,0,0,1,.83.23,2.29,2.29,0,0,1-.82,2.69A2.36,2.36,0,0,1,174.13,93.66Z" fill="#ffd200"/><path d="M172.62,95.56s-.11-.8-.7-.67-.45,1.3.39,1.31Z" fill="#f4a28c"/><path d="M174.84,94.82l.67.74a.34.34,0,0,1-.14.55l-.79.24Z" fill="#f4a28c"/><path d="M173.52,97.82a2.51,2.51,0,0,1-1.31-.58,4,4,0,0,0,1.72,2.32Z" fill="#ce8172" opacity="0.31"/><path d="M162.74,111.16s-.23-9.25,9.75-9.72,9.71,10.13,9.71,10.13S172.79,120.15,162.74,111.16Z" fill="#2e6dfd"/><circle cx="171.51" cy="183.44" r="14.73" fill="#24285b"/><path d="M173.48,176.67a12.94,12.94,0,0,1,.24,3.49,1,1,0,0,1-1.19.9,2.33,2.33,0,0,1-2-1.52l-.84-1.75a1.9,1.9,0,0,1,.59-2.11A2,2,0,0,1,173.48,176.67Z" fill="#f4a28c"/><polygon points="169.82 178.1 169.55 184.99 173.36 184.87 172.03 179.91 169.82 178.1" fill="#f4a28c"/><path d="M173.68,178l.68.74a.34.34,0,0,1-.15.55l-.78.24Z" fill="#f4a28c"/><path d="M172.36,181a2.49,2.49,0,0,1-1.3-.58,4,4,0,0,0,1.72,2.32Z" fill="#ce8172" opacity="0.31"/><path d="M161.59,194.32s-.23-9.24,9.75-9.72,9.71,10.13,9.71,10.13S171.64,203.31,161.59,194.32Z" fill="#2e6dfd"/><path d="M169.74,180.3l-1.15-2.15s-1.94.21-2-1.2,1.44-1.07,1.44-2-.19-2.34,1.3-2.31,1.9,1.24,2.59.46a1.06,1.06,0,0,1,1.85.71c.08.95,1.09.66.68,2s-2.53.64-2.53.64-1.92,0-1.68.85S172,180,169.74,180.3Z" fill="#ffd200"/><path d="M171.12,178.51s-.35-.73-.88-.43,0,1.37.76,1.13Z" fill="#f4a28c"/><circle cx="172.09" cy="141.07" r="14.73" fill="#24285b"/><path d="M174.06,134.31a13.36,13.36,0,0,1,.24,3.48,1.06,1.06,0,0,1-1.19.91,2.32,2.32,0,0,1-2-1.53l-.84-1.75a1.88,1.88,0,0,1,.59-2.1A2,2,0,0,1,174.06,134.31Z" fill="#f4a28c"/><polygon points="170.4 135.74 170.13 142.63 173.93 142.51 172.6 137.54 170.4 135.74" fill="#f4a28c"/><path d="M172.05,136.36s-.11-.8-.71-.67-.44,1.29.39,1.31Z" fill="#f4a28c"/><path d="M174.26,135.62l.68.73a.34.34,0,0,1-.15.55l-.78.25Z" fill="#f4a28c"/><path d="M172.94,138.62a2.5,2.5,0,0,1-1.31-.59,3.92,3.92,0,0,0,1.73,2.32Z" fill="#ce8172" opacity="0.31"/><path d="M162.16,152s-.22-9.25,9.75-9.73,9.72,10.14,9.72,10.14S172.21,161,162.16,152Z" fill="#2e6dfd"/><path d="M166.71,139.35a3.59,3.59,0,0,0-.35,3,2,2,0,0,0,2.07,1.53c2.63-.1,2.24-.87,2.59-4.64.32-3.54.61-4.59,2.69-5.12s.8-2.58-1-2.53-5,.14-4.91,3.44A8.16,8.16,0,0,1,166.71,139.35Z" fill="#ffd200"/><rect x="195.51" y="89.08" width="20.14" height="4.13" fill="#e6e6e6"/><rect x="147.6" y="60.58" width="98.38" height="17.51" fill="#ffd200"/><rect x="182.2" y="66.85" width="51.67" height="4.99" fill="#fff"/><circle cx="158.89" cy="68.57" r="4.57" fill="#24285b"/><circle cx="163.46" cy="68.57" r="4.57" fill="#24285b" opacity="0.74"/><circle cx="168.79" cy="68.57" r="4.57" fill="#24285b" opacity="0.31"/><polygon points="195.51 97.48 195.51 105.96 189.71 110.03 195.51 110.03 275.49 110.03 275.49 97.48 195.51 97.48" fill="#ffd200"/><rect x="202.94" y="101.83" width="61.13" height="4.03" fill="#fff" opacity="0.39"/><rect x="195.51" y="128.24" width="20.14" height="4.13" fill="#e6e6e6"/><polygon points="195.51 136.63 195.51 145.11 189.71 149.19 195.51 149.19 275.49 149.19 275.49 136.63 195.51 136.63" fill="#ffd200"/><rect x="202.94" y="140.99" width="61.13" height="4.03" fill="#fff" opacity="0.39"/><rect x="195.51" y="172.24" width="20.14" height="4.13" fill="#e6e6e6"/><polygon points="195.51 180.64 195.51 189.12 189.71 193.19 195.51 193.19 275.49 193.19 275.49 180.64 195.51 180.64" fill="#ffd200"/><rect x="202.94" y="184.99" width="61.13" height="4.03" fill="#fff" opacity="0.39"/><rect x="293.41" y="71.96" width="54.5" height="59.74" fill="#24285b"/><circle cx="305.85" cy="88.88" r="3.61" fill="#2e6dfd"/><circle cx="305.85" cy="102.82" r="3.61" fill="#fff"/><circle cx="305.85" cy="116.76" r="3.61" fill="#ffd200"/><rect x="316.91" y="85.72" width="22" height="5.14" fill="#fff" opacity="0.2"/><rect x="316.91" y="100.25" width="22" height="5.14" fill="#fff" opacity="0.2"/><rect x="316.91" y="114.48" width="22" height="5.14" fill="#fff" opacity="0.2"/><rect x="46.42" y="78.4" width="68.92" height="108.91" fill="#24285b"/><circle cx="68.41" cy="99.38" r="11.44" fill="#2e6dfd"/><rect x="85.57" y="92.89" width="19.22" height="4.71" fill="#fff"/><rect x="85.57" y="101.15" width="19.22" height="4.71" fill="#fff" opacity="0.21"/><rect x="46.42" y="121.59" width="68.92" height="65.72" fill="#fff" opacity="0.11"/><rect x="70.3" y="134.78" width="30.92" height="6.26" fill="#fff"/><rect x="70.3" y="151.1" width="30.92" height="6.26" fill="#fff" opacity="0.57"/><rect x="70.3" y="167.42" width="30.92" height="6.26" fill="#fff" opacity="0.23"/><circle cx="62.05" cy="138.34" r="3.57" fill="#ffd200"/><circle cx="62.05" cy="154.23" r="3.57" fill="#ffd200" opacity="0.36"/><circle cx="62.05" cy="170.56" r="3.57" fill="#ffd200" opacity="0.36"/></svg>